<?xml version="1.0" encoding="iso-8859-1"?>
<!-- Generator: Adobe Illustrator 19.0.0, SVG Export Plug-In . SVG Version: 6.00 Build 0)  -->
<svg version="1.1" id="Layer_1" xmlns="http://www.w3.org/2000/svg" xmlns:xlink="http://www.w3.org/1999/xlink" x="0px" y="0px"
	 viewBox="0 0 512 512" style="enable-background:new 0 0 512 512;" xml:space="preserve">
<g>
	<path style="fill:#C7B299;" d="M72.494,162.672c-8.857,0-16.038-6.784-16.038-15.642c0-8.857,7.181-15.642,16.038-15.642h40.125
		v31.283H72.494z"/>
	<path style="fill:#C7B299;" d="M441.37,162.672c8.857,0,16.038-6.784,16.038-15.642c0-8.857-7.181-15.642-16.038-15.642h-40.946
		v31.283H441.37z"/>
</g>
<path style="fill:#A43108;" d="M73.103,163.495c-8.857,0-16.343-7.195-16.343-16.052c0-8.857,6.876-16.053,15.733-16.053h16.038
	c13.286,0,24.057-10.698,24.057-23.984s-10.771-23.984-24.057-23.984H8.342V387.91h57.352"/>
<path style="fill:#F47B50;" d="M449.434,387.91h55.267V83.422h-79.369c-13.286,0-24.057,10.698-24.057,23.984
	s10.771,23.984,24.057,23.984h16.038c8.857,0,16.038,7.253,16.038,16.112c0,8.857-7.158,15.958-16.016,15.958"/>
<path style="fill:#F15A24;" d="M55.267,162.672v250.446c0,8.352,8.37,15.46,17.228,15.46H441.37c8.857,0,15.363-7.109,15.363-15.46
	V162.672"/>
<path style="fill:#C7B299;" d="M176.741,315.973c0,17.716-32.076,56.133-32.076,56.133s-32.076-38.418-32.076-56.133
	c0-17.715,14.361-32.076,32.076-32.076C162.381,283.897,176.741,298.258,176.741,315.973z"/>
<path d="M425.332,76.122c-17.853,0-31.842,13.707-31.877,31.218h-0.001l-0.328,39.625l15.642,0.13l0.106-12.769
	c4.778,2.776,10.395,4.362,16.46,4.362h16.038c4.515,0,7.95,3.127,8.193,7.344v0.961c-0.248,4.213-3.682,7.335-8.193,7.335H72.494
	c-4.684,0-8.217-3.363-8.217-7.821s3.533-7.821,8.217-7.821h16.039c5.83,0,11.243-1.469,15.898-4.048l-0.152,12.293l15.639,0.194
	l0.492-39.625h-0.001c0-0.032,0.002-0.065,0.002-0.097c0-17.541-14.002-31.283-31.877-31.283H0v320.13h39.625v-15.642H15.642V91.764
	h72.891c9.103,0,16.235,6.869,16.236,15.638v0.007c-0.002,8.769-7.133,15.636-16.236,15.636H72.494
	c-13.379,0-23.859,10.306-23.859,23.462c0,0.169,0.009,0.335,0.013,0.502h-0.013l-0.668,265.192
	c0,13.055,11.002,23.676,24.527,23.676H441.37c13.293,0,23.705-10.401,23.705-23.672c0,0,0.153-265.368,0.153-265.697
	c0-13.157-10.48-23.462-23.859-23.462h-16.038c-9.104,0-16.237-6.871-16.237-15.642s7.133-15.642,16.237-15.642h71.026v288.847
	h-22.941v15.642H512V76.122H425.332z M449.434,412.202c0,4.505-3.542,8.035-8.064,8.035H72.494c-4.733,0-8.885-3.755-8.885-8.015
	l0.614-243.646c2.566,0.905,5.349,1.397,8.271,1.397H441.37c2.888,0,5.64-0.483,8.183-1.368L449.434,412.202z"/>
<polygon style="fill:#C7B299;" points="417.312,267.859 361.179,267.859 361.179,219.745 417.312,219.745 409.293,243.802 "/>
<path d="M144.666,384.31l-6.003-7.191c-5.66-6.779-33.894-41.586-33.894-61.146c0-21.999,17.898-39.897,39.897-39.897
	s39.896,17.898,39.896,39.897c0,19.56-28.233,54.367-33.893,61.146L144.666,384.31z M144.666,291.718
	c-13.375,0-24.256,10.881-24.256,24.256c0,8.688,12.725,28.574,24.256,43.602c11.531-15.028,24.255-34.914,24.255-43.602
	C168.92,302.599,158.04,291.718,144.666,291.718z"/>
<rect x="137.646" y="387.91" style="fill:#FBB03B;" width="13.556" height="15.642"/>
<rect x="137.646" y="307.617" style="fill:#FFFFFF;" width="13.556" height="15.642"/>
<rect x="353.499" y="285.719" width="15.642" height="44.839"/>
<path d="M428.164,275.68h-74.805v-63.756h74.805l-10.627,31.877L428.164,275.68z M369,260.039h37.462l-5.411-16.236l5.411-16.236
	H369V260.039z"/>
<rect x="353.499" y="187.699" style="fill:#FFFFFF;" width="14.599" height="15.642"/>
<rect x="353.499" y="342.029" style="fill:#FBB03B;" width="14.599" height="15.642"/>
<polygon style="fill:#FFFFFF;" points="226.281,403.552 159.544,403.552 159.544,387.91 210.64,387.91 210.64,217.939 
	282.591,217.939 282.591,285.719 328.473,285.719 328.473,342.029 346.2,342.029 346.2,357.67 312.831,357.67 312.831,301.361 
	266.949,301.361 266.949,233.58 226.281,233.58 "/>
<rect x="80.293" y="187.699" style="fill:#FBB03B;" width="79.251" height="15.642"/>
<rect x="80.293" y="210.64" style="fill:#FFFFFF;" width="47.967" height="15.642"/>
<g>
	<rect x="80.293" y="236.709" style="fill:#FBB03B;" width="23.984" height="15.642"/>
	<rect x="296.147" y="387.91" style="fill:#FBB03B;" width="64.652" height="15.642"/>
</g>
<rect x="368.098" y="387.91" style="fill:#FFFFFF;" width="16.684" height="15.642"/>
<rect x="392.081" y="387.91" style="fill:#FBB03B;" width="18.77" height="15.642"/>
<rect x="417.108" y="387.91" style="fill:#FFFFFF;" width="15.642" height="15.642"/>
<g>
</g>
<g>
</g>
<g>
</g>
<g>
</g>
<g>
</g>
<g>
</g>
<g>
</g>
<g>
</g>
<g>
</g>
<g>
</g>
<g>
</g>
<g>
</g>
<g>
</g>
<g>
</g>
<g>
</g>
</svg>
